<svg width="29" height="54" viewBox="0 0 29 54" fill="none" xmlns="http://www.w3.org/2000/svg">
<ellipse cx="14.5" cy="11.0566" rx="11.9412" ry="11.0566" fill="#FAF582"/>
<path d="M2.16337 45.9361L5.37037 25.7778L24.1667 25.2407L28.2823 45.8191C28.6536 47.6754 27.2337 49.4074 25.3406 49.4074H5.12611C3.28125 49.4074 1.87351 47.758 2.16337 45.9361Z" fill="url(#paint0_linear_12_122)"/>
<path d="M2.34272 18.3203L8.31725 22.7459C8.45504 22.8479 8.62197 22.903 8.79344 22.903H21.0366C21.2221 22.903 21.4018 22.8386 21.545 22.7207L26.7533 18.4341C27.381 17.9175 28.2898 18.5578 28.0144 19.3228L24.0728 30.2716C23.9585 30.589 23.6574 30.8006 23.3201 30.8006H6.50228C6.18015 30.8006 5.88944 30.6074 5.7647 30.3104L1.12895 19.2729C0.813976 18.523 1.68911 17.8361 2.34272 18.3203Z" fill="#FF7715"/>
<path d="M20.4867 22.9031H9.43677C7.9389 22.9031 6.67055 24.0079 6.46511 25.4916L3.03118 50.2923C2.7815 52.0955 4.18238 53.7037 6.00283 53.7037H24.6075C26.4607 53.7037 27.8706 52.0401 27.5669 50.212L23.4462 25.4113C23.2057 23.9641 21.9538 22.9031 20.4867 22.9031Z" fill="#FAF582"/>
<path d="M5.15555 23.6296C5.97187 23.6296 8.85035 23.6296 9.66666 23.6296" stroke="#FF7715" stroke-width="2" stroke-linecap="round"/>
<path d="M20.4074 23.6296C21.2237 23.6296 24.1022 23.6296 24.9185 23.6296" stroke="#FF7715" stroke-width="2" stroke-linecap="round"/>
<defs>
<linearGradient id="paint0_linear_12_122" x1="12.3519" y1="25.7778" x2="11.8148" y2="51.0185" gradientUnits="userSpaceOnUse">
<stop stop-color="#FFA05C"/>
<stop offset="0.9999" stop-color="#FF842B"/>
<stop offset="1" stop-color="#FFA05C" stop-opacity="0"/>
<stop offset="1" stop-color="#FFBE5C"/>
</linearGradient>
</defs>
</svg>
